
<svg version="1.1" xmlns="http://www.w3.org/2000/svg" width="1254" height="1254" viewBox="0 0 1254 1254" preserveAspectRatio="xMidYMid meet">
<path d="M0 0 C413.82 0 827.64 0 1254 0 C1254 413.82 1254 827.64 1254 1254 C840.18 1254 426.36 1254 0 1254 C0 840.18 0 426.36 0 0 Z " fill="#FDFDFD" transform="translate(0,0)" />
<path d="M0 0 C2.30787059 -0.00043642 4.61574113 -0.00131262 6.9236114 -0.00258917 C13.24718216 -0.00482028 19.57073592 -0.00083178 25.89430451 0.0041889 C32.01875023 0.00856201 38.14319614 0.00722778 44.26764294 0.00650705 C56.7897514 0.0051956 69.31185457 0.00852524 81.83396149 0.01452446 C94.22763343 0.02044689 106.62130316 0.0242915 119.0149765 0.02537727 C119.78634678 0.02544601 120.55771706 0.02551475 121.3524622 0.02558558 C125.27005971 0.02592392 129.18765722 0.0262253 133.10525474 0.02651245 C160.83431114 0.02861137 188.56336466 0.03534456 216.29241943 0.04481506 C243.22633855 0.05400336 270.16025688 0.06108508 297.09417725 0.06532288 C297.92478807 0.0654544 298.7553989 0.06558593 299.61117976 0.06572144 C307.95271807 0.06703999 316.29425639 0.0683158 324.63579472 0.0695603 C341.62759854 0.07209633 358.61940231 0.07491758 375.61120605 0.07791138 C376.39241591 0.07804867 377.17362576 0.07818596 377.97850863 0.07832741 C401.91747615 0.08254945 425.85644318 0.08798009 449.79541016 0.09460449 C450.81464348 0.09488583 450.81464348 0.09488583 451.85446737 0.09517285 C479.37333573 0.10278716 506.89220371 0.11168174 534.41107178 0.12025452 C534.41107178 50.94025452 534.41107178 101.76025452 534.41107178 154.12025452 C512.88123047 154.12641785 512.88123047 154.12641785 490.91644287 154.13270569 C460.17169149 154.14385438 429.42695624 154.16151067 398.68222046 154.19454956 C397.6755366 154.19562874 397.6755366 154.19562874 396.6485157 154.19672972 C382.05825051 154.2124076 367.46798679 154.22919073 352.87772419 154.24711014 C345.72119707 154.2558929 338.56466966 154.26443178 331.40814209 154.27284241 C330.33998177 154.27410398 330.33998177 154.27410398 329.25024246 154.27539104 C306.22756509 154.30246835 283.20491458 154.31348628 260.18222251 154.31604976 C236.49542511 154.31877293 212.80869539 154.33795005 189.12192939 154.37741567 C173.87653779 154.40278236 158.63126402 154.4140745 143.38584961 154.40376762 C133.37077287 154.39841986 123.35582357 154.41163229 113.3407831 154.43891742 C107.5771156 154.45408821 101.81373359 154.46157853 96.05005836 154.44685173 C59.60744124 154.36233974 23.98787439 156.15336846 -9.58892822 172.12025452 C-10.63234375 172.60437805 -10.63234375 172.60437805 -11.69683838 173.09828186 C-35.26615946 184.09664516 -56.23315497 198.59564723 -74.9800415 216.57875061 C-76.05143039 217.60526798 -77.12794333 218.62646424 -78.20953369 219.64222717 C-110.74209996 250.23984357 -133.48910489 293.93142748 -144.27423096 336.87171936 C-144.7800994 338.88486428 -145.29601554 340.89523332 -145.8135376 342.90541077 C-154.42426774 376.55934142 -156.20973344 411.67199655 -151.58892822 446.12025452 C-151.45470459 447.12346741 -151.32048096 448.1266803 -151.18218994 449.16029358 C-149.25538436 463.08535804 -146.69973781 476.67214156 -142.58892822 490.12025452 C-142.28358154 491.12250061 -141.97823486 492.1247467 -141.66363525 493.15736389 C-128.92319595 534.34630954 -109.48810785 570.92808322 -79.58892822 602.12025452 C-78.83506836 602.91496155 -78.83506836 602.91496155 -78.065979 603.72572327 C-50.38809807 632.77499188 -14.31164262 652.87468664 24.41107178 662.87025452 C25.11981445 663.05676575 25.82855713 663.24327698 26.55877686 663.43544006 C29.16459375 664.07211285 31.77960778 664.59791697 34.41107178 665.12025452 C36.25956285 665.4927116 36.25956285 665.4927116 38.14539719 665.87269306 C53.94405535 668.76727837 69.81871812 668.56798646 85.81517267 668.55299437 C90.02211642 668.55236311 94.22899902 668.56905892 98.43591309 668.58351135 C105.70163699 668.60616545 112.96731338 668.61815948 120.23307037 668.62264061 C130.73775737 668.62913517 141.24235894 668.6521301 151.74701127 668.6789839 C168.79550114 668.72212567 185.84398738 668.75216417 202.89251709 668.77381897 C219.4407123 668.79486664 235.98887777 668.82220837 252.53704834 668.85780334 C253.56970943 668.86001686 254.60237052 668.86223037 255.66632438 668.86451095 C263.74398293 668.88187414 271.82164068 668.89959906 279.89929819 668.91743815 C319.40320421 669.00458814 358.90709725 669.06022437 398.41107178 669.12025452 C398.41107178 560.88025452 398.41107178 452.64025452 398.41107178 341.12025452 C443.29107178 341.12025452 488.17107178 341.12025452 534.41107178 341.12025452 C534.41107178 497.87025452 534.41107178 654.62025452 534.41107178 816.12025452 C396.02897758 816.2010118 396.02897758 816.2010118 342.96393394 816.21658444 C329.08867473 816.22066663 315.21341556 816.22484235 301.33815646 816.2293065 C299.65995495 816.22984619 297.98175343 816.23038293 296.30355191 816.23091669 C269.57674646 816.2394417 242.8499495 816.25444274 216.12314918 816.27284896 C188.64129067 816.29174068 161.15943685 816.30403155 133.67757196 816.3080845 C129.7908641 816.30866076 125.90415626 816.30931203 122.01744843 816.310009 C121.25253152 816.31014385 120.48761461 816.31027869 119.69951841 816.31041763 C107.41478679 816.31277581 95.13006974 816.32203771 82.84534405 816.33391858 C70.47790472 816.34573077 58.11047975 816.35018107 45.74303499 816.34725727 C39.04905896 816.34587539 32.35513057 816.34790914 25.66115952 816.35866547 C19.52162084 816.36845841 13.38215296 816.36885049 7.2426109 816.36205231 C5.03230864 816.36121313 2.82200181 816.36369867 0.61170843 816.37002088 C-76.01189403 816.57628235 -154.08424188 789.36775641 -216.81524658 745.92958069 C-232.68069293 734.79301539 -247.59896765 722.86598856 -261.80377197 709.68275452 C-264.29998117 707.38610201 -266.83797032 705.15355053 -269.40142822 702.93275452 C-272.83809581 699.89713431 -275.82909296 696.67481747 -278.78424072 693.17494202 C-280.74815464 690.93897076 -282.83046781 688.88215721 -284.96392822 686.80775452 C-289.9266719 681.89530892 -294.25937558 676.59104014 -298.58892822 671.12025452 C-299.45174701 670.04826754 -300.31504337 668.97666482 -301.17877197 667.90541077 C-312.05458607 654.33623793 -321.95378437 640.2181054 -330.58892822 625.12025452 C-330.96114502 624.47201721 -331.33336182 623.82377991 -331.71685791 623.15589905 C-334.02131519 619.13144828 -336.28752329 615.08739004 -338.52886963 611.02748108 C-339.49623613 609.28702344 -340.48485049 607.55841901 -341.47564697 605.83119202 C-360.67026964 571.46597659 -373.1532856 532.51628891 -380.17681885 493.88685608 C-380.4286889 492.10450096 -380.4286889 492.10450096 -381.58892822 491.12025452 C-386.33453622 465.59117053 -388.13529813 439.83385325 -387.97565079 413.90335846 C-387.96370741 411.83195848 -387.95675806 409.76058858 -387.95083618 407.68916321 C-387.8510829 377.57010294 -385.28863158 348.7531558 -379.58892822 319.12025452 C-379.42280029 318.22564514 -379.25667236 317.33103577 -379.08551025 316.40931702 C-376.53263761 302.70754979 -372.71131386 289.42508522 -368.58892822 276.12025452 C-368.1326001 274.63235413 -368.1326001 274.63235413 -367.66705322 273.11439514 C-361.21550275 252.26987296 -352.64603108 232.33836298 -342.56158447 212.99623108 C-341.55424705 211.05336442 -340.57105312 209.09940984 -339.58892822 207.14369202 C-326.05595128 180.52641493 -308.46853636 154.68769634 -288.07330322 132.81556702 C-286.14870721 130.72756191 -284.29220939 128.61429218 -282.44439697 126.46009827 C-277.91256006 121.26271269 -273.03585137 116.42134857 -268.15142822 111.55775452 C-267.24843994 110.65089905 -266.34545166 109.74404358 -265.4151001 108.80970764 C-260.30290177 103.70491293 -255.11497676 98.77433988 -249.58892822 94.12025452 C-248.6836438 93.35491394 -248.6836438 93.35491394 -247.7600708 92.57411194 C-195.94909655 49.17468725 -132.5792777 17.13939154 -65.58892822 6.12025452 C-63.77528127 5.81486466 -61.96163575 5.50946627 -60.14801025 5.20394897 C-57.40522576 4.74377466 -54.66143312 4.28985499 -51.91729736 3.83781433 C-50.5536723 3.61305967 -49.19022144 3.38724495 -47.82696533 3.16026306 C-45.87865343 2.83722081 -43.92910668 2.52165493 -41.97955322 2.20619202 C-40.84550049 2.02105042 -39.71144775 1.83590881 -38.54302979 1.64515686 C-25.69550385 -0.06033714 -12.93535086 -0.01819035 0 0 Z " fill="#02245D" transform="translate(538.5889282226563,183.87974548339844)" />
<path d="M0 0 C22.77 0 45.54 0 69 0 C69 3.63 69 7.26 69 11 C67.453125 11.226875 65.90625 11.45375 64.3125 11.6875 C61.05046767 12.16593141 59.1251768 12.91701242 56.36328125 14.74804688 C54.46907607 16.73150007 54.01388491 17.91551053 53.56352234 20.65596008 C53.4198542 24.1001675 53.43887548 27.51054259 53.51171875 30.95703125 C53.52233086 32.84418098 53.52233086 32.84418098 53.53315735 34.76945496 C53.5563763 38.10249327 53.60123452 41.43379975 53.65667725 44.76635742 C53.70797266 48.17156055 53.73069309 51.57694314 53.75585938 54.98242188 C53.8109623 61.65542446 53.89461708 68.3276123 54 75 C54.73605469 74.05898438 55.47210937 73.11796875 56.23046875 72.1484375 C57.21609767 70.89058726 58.20177747 69.63277689 59.1875 68.375 C59.67025391 67.75753906 60.15300781 67.14007812 60.65039062 66.50390625 C63.70259287 62.61183628 66.81542056 58.78457267 70 55 C74.0678824 50.15973486 77.98888566 45.2248747 81.87255859 40.23730469 C85.83356849 35.16777687 89.94206928 30.23553972 94.1015625 25.328125 C96.01161085 23.15899011 96.01161085 23.15899011 97 21 C97.25 18 97.25 18 97 15 C95.1425115 12.7958802 95.1425115 12.7958802 92.3984375 12.3671875 C90.90183594 12.12355469 90.90183594 12.12355469 89.375 11.875 C87.60125 11.58625 85.8275 11.2975 84 11 C84 7.37 84 3.74 84 0 C102.15 0 120.3 0 139 0 C139 3.63 139 7.26 139 11 C137.22625 11.20625 135.4525 11.4125 133.625 11.625 C125.48284713 12.99641091 119.38295026 16.51477682 113.4375 22.1875 C109.52457189 26.36371098 105.94980501 30.82908418 102.37304688 35.29296875 C100.80387998 37.24382488 99.22300612 39.18484767 97.640625 41.125 C96.46873621 42.56248876 95.29686116 43.99998871 94.125 45.4375 C93.56538574 46.12384521 93.00577148 46.81019043 92.42919922 47.51733398 C91.38933906 48.79625152 90.35431502 50.07912326 89.32519531 51.36669922 C88.27328051 52.66318227 87.17192853 53.91952514 86.0546875 55.16015625 C85.70664062 55.76730469 85.35859375 56.37445312 85 57 C85.44314768 60.5809612 86.47726746 63.21870248 88.30078125 66.30859375 C88.77700928 67.12634277 89.2532373 67.9440918 89.74389648 68.78662109 C90.52035522 70.09880615 90.52035522 70.09880615 91.3125 71.4375 C92.41595685 73.33353421 93.51746173 75.23070553 94.6171875 77.12890625 C95.18147461 78.10230957 95.74576172 79.07571289 96.32714844 80.07861328 C98.93773122 84.63760825 101.43951749 89.25362818 103.9375 93.875 C108.61951115 102.51628541 113.40052969 111.09616704 118.26953125 119.63354492 C120.84939545 124.16271774 123.39239847 128.70211958 125.83203125 133.30859375 C126.27401855 134.13456055 126.71600586 134.96052734 127.17138672 135.81152344 C127.98627936 137.34074349 128.78967389 138.87617552 129.57861328 140.41894531 C132.01405274 144.96265959 134.2703393 147.58369447 139 150 C142.37839059 150.74229427 145.5241079 150.81211394 149 151 C149 154.96 149 158.92 149 163 C126.89 163 104.78 163 82 163 C82 159.37 82 155.74 82 152 C82.33 151.67 82.66 151.34 83 151 C84.51469448 150.76807135 86.03754562 150.58784762 87.5625 150.4375 C88.38878906 150.35371094 89.21507812 150.26992188 90.06640625 150.18359375 C90.70449219 150.12300781 91.34257813 150.06242188 92 150 C91.68817931 148.58318366 91.37551263 147.16655349 91.0625 145.75 C90.80146484 144.56664062 90.80146484 144.56664062 90.53515625 143.359375 C90.052444 141.23121297 89.53836822 139.11467158 89 137 C88.34 137 87.68 137 87 137 C86.58492187 136.14664063 86.16984375 135.29328125 85.7421875 134.4140625 C81.27336832 125.31575589 76.55895175 116.36054064 71.75 107.4375 C70.84677002 105.76131592 70.84677002 105.76131592 69.92529297 104.05126953 C67.01199763 98.66357966 64.07154551 93.29917629 61 88 C58.64077085 88.97623275 57.12300593 89.86541302 55.38952637 91.76210022 C53.74043685 94.41803908 53.60973469 95.94939251 53.58007812 99.05639648 C53.56416626 100.06101425 53.54825439 101.06563202 53.53186035 102.10069275 C53.53165894 103.17992508 53.53145752 104.25915741 53.53125 105.37109375 C53.52363647 106.48557388 53.51602295 107.60005402 53.50817871 108.74830627 C53.49737695 111.1043982 53.49452489 113.460538 53.49902344 115.81665039 C53.49999552 119.42089712 53.45837625 123.02301391 53.4140625 126.62695312 C53.40885536 128.91666223 53.40616731 131.20637873 53.40625 133.49609375 C53.38985474 134.57330185 53.37345947 135.65050995 53.35656738 136.76036072 C53.38274051 139.59489041 53.46892476 142.21559139 54 145 C56.14657198 148.22592988 56.14657198 148.22592988 59 150 C61.64009148 150.80095024 61.64009148 150.80095024 64.3125 150.8125 C65.859375 150.874375 67.40625 150.93625 69 151 C69 154.96 69 158.92 69 163 C46.23 163 23.46 163 0 163 C0 159.37 0 155.74 0 152 C2.5678125 151.5978125 2.5678125 151.5978125 5.1875 151.1875 C11.03823776 150.12929381 11.03823776 150.12929381 16 147 C17.70514391 143.48258207 18.252876 140.65205954 18.26742554 136.76281738 C18.27595551 135.72822891 18.28448547 134.69364044 18.29327393 133.62770081 C18.29236755 132.50339157 18.29146118 131.37908234 18.29052734 130.22070312 C18.29724457 129.02831528 18.30396179 127.83592743 18.31088257 126.60740662 C18.32660693 123.34503447 18.33323639 120.08281526 18.33451414 116.82040977 C18.33593774 114.78090199 18.3402112 112.74142074 18.34550858 110.70191956 C18.36399477 103.58332631 18.3721806 96.46480786 18.37060547 89.34619141 C18.3694031 82.71535221 18.39052738 76.084838 18.4220928 69.45408106 C18.44825237 63.75541992 18.45897297 58.056865 18.45769465 52.35814428 C18.45718509 48.95695396 18.46286476 45.55605287 18.48405075 42.15492249 C18.50360315 38.36277096 18.49791451 34.57146139 18.48583984 30.77929688 C18.50269836 29.09283302 18.50269836 29.09283302 18.51989746 27.37229919 C18.50029544 21.30636014 18.50029544 21.30636014 16.10635376 15.84191895 C12.38768308 12.59009577 8.98744213 11.9317331 4.1875 11.375 C2.805625 11.25125 1.42375 11.1275 0 11 C0 7.37 0 3.74 0 0 Z " fill="#05255C" transform="translate(649,530)" />
<path d="M0 0 C0.92353271 0.01087646 1.84706543 0.02175293 2.79858398 0.03295898 C14.20495326 0.29845638 22.401321 2.64408237 31.99609375 8.94921875 C34.86775486 10.4704906 36.49308382 10.68226689 39.6875 10.375 C41.3375 7.735 42.9875 5.095 44.6875 2.375 C47.6575 2.375 50.6275 2.375 53.6875 2.375 C53.6875 20.855 53.6875 39.335 53.6875 58.375 C50.7175 58.375 47.7475 58.375 44.6875 58.375 C44.33558594 57.20324219 43.98367188 56.03148437 43.62109375 54.82421875 C40.72137749 45.4768161 37.66496094 37.26306489 31.6875 29.375 C31.20539063 28.71242188 30.72328125 28.04984375 30.2265625 27.3671875 C25.77408825 21.68474799 20.09680502 17.8456806 13.5 15 C6.19878038 13.80307875 -1.99082498 12.82981706 -8.875 16.0625 C-13.17814894 18.68300737 -16.35651518 21.74283079 -18.9140625 26.109375 C-21.34453783 31.78501013 -21.09673482 37.32320563 -20.3125 43.375 C-19.10578997 47.07317601 -17.37019016 48.99969044 -14.3125 51.375 C-4.03134973 57.88239472 7.56730184 61.61250761 18.94580078 65.72949219 C31.79303939 70.42127551 45.07321768 75.93522577 53.75390625 87.01171875 C60.20687696 96.67096719 62.25626643 105.13386993 62.1875 116.6875 C62.18177979 117.79746338 62.17605957 118.90742676 62.17016602 120.05102539 C61.99130115 128.23123218 61.15036261 134.36515014 56.6875 141.375 C56.15640625 142.25929688 55.6253125 143.14359375 55.078125 144.0546875 C48.93293535 153.55436141 40.98000224 159.75124725 30.6875 164.375 C24.71163165 166.5487129 19.21355925 166.68903053 12.9375 166.625 C11.95249512 166.61533203 10.96749023 166.60566406 9.95263672 166.59570312 C-1.47638149 166.40619859 -9.61612599 164.66803465 -19.65771484 159.20703125 C-23.56418726 157.10016972 -26.81702655 155.82803221 -31.3125 155.375 C-32.12610995 156.66596781 -32.93835046 157.95779875 -33.75 159.25 C-34.42869141 160.32894531 -34.42869141 160.32894531 -35.12109375 161.4296875 C-36.33711501 163.3527547 -36.33711501 163.3527547 -37.3125 165.375 C-40.6125 165.375 -43.9125 165.375 -47.3125 165.375 C-47.3125 145.245 -47.3125 125.115 -47.3125 104.375 C-44.0125 104.375 -40.7125 104.375 -37.3125 104.375 C-36.94898438 105.54675781 -36.58546875 106.71851563 -36.2109375 107.92578125 C-31.47956237 122.85992998 -26.01524147 135.114152 -13.7890625 145.5234375 C-11.64495357 147.12644638 -9.64816872 148.39440589 -7.25 149.5625 C-6.27353516 150.04783203 -6.27353516 150.04783203 -5.27734375 150.54296875 C1.9403145 153.59935286 11.7318619 153.36758731 19.33984375 151.84375 C23.38108359 150.4165175 26.75084498 148.47480252 29.6875 145.375 C32.82742475 140.53642743 33.96658296 135.99621812 34.125 130.25 C33.91843974 125.31133192 33.36266162 121.63853884 30.6875 117.375 C24.22753202 109.03087469 13.14199359 106.08914453 3.6875 102.375 C-32.11640988 88.10256663 -32.11640988 88.10256663 -40.3203125 76.546875 C-46.22733184 66.90780578 -48.94406027 58.44147359 -48.66015625 47.09765625 C-47.55876515 35.30410889 -43.94655794 25.0147535 -36.27734375 15.9765625 C-26.20523598 5.28271969 -14.66806842 -0.23525909 0 0 Z " fill="#06265D" transform="translate(853.3125,527.625)" />
<path d="M0 0 C23.76 0 47.52 0 72 0 C72 3.63 72 7.26 72 11 C71.01257813 11.12117187 70.02515625 11.24234375 69.0078125 11.3671875 C67.72648438 11.53476562 66.44515625 11.70234375 65.125 11.875 C63.21074219 12.11863281 63.21074219 12.11863281 61.2578125 12.3671875 C57.92835773 12.69877473 57.92835773 12.69877473 56 15 C55.66594894 21.58347866 58.08512082 27.93572594 60.28125 34.02734375 C60.61086227 34.9659877 60.94047455 35.90463165 61.28007507 36.87171936 C62.3445408 39.89685166 63.42214953 42.91711397 64.5 45.9375 C65.23574562 48.02114433 65.97052394 50.10513047 66.7043457 52.18945312 C68.14590563 56.28127061 69.59180323 60.37150917 71.04150391 64.46044922 C73.46160939 71.29398751 75.82968114 78.14475312 78.1875 85 C81.07167654 93.35280541 83.99343166 101.690389 87 110 C89.60902006 107.39097994 90.18373307 104.57544883 91.1875 101.125 C93.11803925 94.70286697 95.2435529 88.37713395 97.5 82.0625 C100.43688538 73.79565306 102.99093351 65.46897865 105.40722656 57.03808594 C106.3963254 53.63734577 107.44380243 50.25540691 108.5 46.875 C108.70278564 46.22249268 108.90557129 45.56998535 109.11450195 44.89770508 C110.16492012 41.54827419 111.26088778 38.22161274 112.42578125 34.91015625 C112.6578125 34.24322754 112.88984375 33.57629883 113.12890625 32.88916016 C113.77066359 31.05694295 114.42588539 29.2294576 115.08203125 27.40234375 C116.08577729 23.68207652 116.44683032 20.83190853 116 17 C114.54249154 14.50070687 114.54249154 14.50070687 112 13 C108.74641317 12.09179635 108.74641317 12.09179635 105.25 11.75 C104.07953125 11.60046875 102.9090625 11.4509375 101.703125 11.296875 C100.81109375 11.19890625 99.9190625 11.1009375 99 11 C99 7.37 99 3.74 99 0 C115.17 0 131.34 0 148 0 C148 3.63 148 7.26 148 11 C147.01 11.061875 146.02 11.12375 145 11.1875 C140.19196624 11.9271975 136.63298851 13.78411901 133 17 C128.65828672 23.72511804 126.3323699 31.47071513 124 39.0625 C123.65316162 40.1666626 123.30632324 41.2708252 122.94897461 42.40844727 C120.87574296 49.0430787 118.91279687 55.70405476 117.00610352 62.38793945 C114.73293374 70.18233396 112.00069195 77.82480472 109.29711914 85.47827148 C107.01020575 91.97298516 104.88981527 98.49589708 102.89086914 105.08496094 C101.82262764 108.58038531 100.67482603 112.03902601 99.5 115.5 C97.61153219 121.10839579 95.82708497 126.74178832 94.1015625 132.40234375 C92.73116528 136.87800276 91.33885885 141.34645093 89.9375 145.8125 C89.69201416 146.60108398 89.44652832 147.38966797 89.19360352 148.20214844 C87.6208535 153.20333543 85.88058706 158.10600935 84 163 C78.39 163 72.78 163 67 163 C64.51313126 155.91356809 62.0263353 148.82711064 59.53965664 141.74061203 C58.38414637 138.44766521 57.22860803 135.15472824 56.07299805 131.86181641 C54.95562779 128.67786828 53.83835231 125.49388691 52.72111893 122.30989075 C52.05938721 120.42413615 51.3975373 118.53842303 50.73568726 116.65270996 C48.78354215 111.0895082 46.83313862 105.52572775 44.89111328 99.95898438 C44.57392838 99.05029602 44.25674347 98.14160767 43.9299469 97.2053833 C43.35958261 95.57053548 42.78995455 93.93543048 42.22129822 92.29998779 C40.54863172 87.50624205 38.79487393 82.74938441 37 78 C36.41396009 76.37597414 35.83034774 74.75106866 35.25 73.125 C34.0063039 69.67981886 32.7153648 66.25925598 31.36328125 62.85546875 C28.16106386 54.78524734 25.20929542 46.7427941 22.70776367 38.42724609 C21.3865701 34.08704549 19.85343963 29.9801389 17.89453125 25.890625 C17.00871569 24.01842094 16.29114132 22.12511602 15.5625 20.1875 C13.7630757 16.51667442 12.51982582 15.06598472 9 13 C6.0038883 12.11879068 3.08417392 11.55238936 0 11 C0 7.37 0 3.74 0 0 Z " fill="#05255C" transform="translate(496,530)" />
<path d="M0 0 C0 50.49 0 100.98 0 153 C-1.32 152.67 -2.64 152.34 -4 152 C-4 151.01 -4 150.02 -4 149 C-3.34 149 -2.68 149 -2 149 C-2 103.79 -2 58.58 -2 12 C-2.66 12 -3.32 12 -4 12 C-4 8.37 -4 4.74 -4 1 C-1 0 -1 0 0 0 Z " fill="#152D5D" transform="translate(1073,184)" />
<path d="M0 0 C0.66 0.33 1.32 0.66 2 1 C0.65641368 4.07767309 -0.70996154 5.83652142 -3.3125 7.9375 C-8.00193182 11.86973916 -12.21975444 16.21171902 -16.4309082 20.64428711 C-20.53013115 24.85622475 -20.53013115 24.85622475 -23.18457031 25.66845703 C-23.78366211 25.77786621 -24.38275391 25.88727539 -25 26 C-20.03805145 20.00499003 -14.6523376 14.53572963 -9.125 9.0625 C-8.24585938 8.18787109 -7.36671875 7.31324219 -6.4609375 6.41210938 C-4.3095654 4.27242952 -2.15588208 2.13513403 0 0 Z " fill="#0C2961" transform="translate(279,287)" />
<path d="M0 0 C0.66 0.33 1.32 0.66 2 1 C1.67 2.32 1.34 3.64 1 5 C-0.32 5.33 -1.64 5.66 -3 6 C-2.67 24.48 -2.34 42.96 -2 62 C-2.99 62.495 -2.99 62.495 -4 63 C-4.09280363 55.52420441 -4.16381701 48.04853363 -4.20724869 40.57227802 C-4.22809712 37.10046816 -4.25636295 33.62905327 -4.30175781 30.1574707 C-4.35365439 26.16353631 -4.37296773 22.17001485 -4.390625 18.17578125 C-4.41127014 16.93290848 -4.43191528 15.69003571 -4.45318604 14.40950012 C-4.45348816 13.24867416 -4.45379028 12.08784821 -4.45410156 10.8918457 C-4.46298401 9.87258499 -4.47186646 8.85332428 -4.48101807 7.80317688 C-3.8775321 4.28630708 -2.39177986 2.58604765 0 0 Z " fill="#DBE0E8" transform="translate(706,543)" />
<path d="M0 0 C15.18 0 30.36 0 46 0 C46 3.3 46 6.6 46 10 C44.35 10 42.7 10 41 10 C41.33 9.01 41.66 8.02 42 7 C42.66 7 43.32 7 44 7 C44 5.02 44 3.04 44 1 C29.48 1 14.96 1 0 1 C0 0.67 0 0.34 0 0 Z " fill="#011B51" transform="translate(672,530)" />
<path d="M0 0 C3.90239275 2.83810382 6.84726498 6.05348549 9.953125 9.6953125 C13.76765985 13.99030403 17.90268976 17.97688652 22 22 C21.34 22.66 20.68 23.32 20 24 C17.4124795 21.44169924 14.83075324 18.87762584 12.25 16.3125 C11.52039063 15.59126953 10.79078125 14.87003906 10.0390625 14.12695312 C2.4373071 6.55975116 2.4373071 6.55975116 0 3 C0 2.01 0 1.02 0 0 Z " fill="#152E64" transform="translate(445,772)" />
<path d="M0 0 C0.33 0 0.66 0 1 0 C1.06058594 1.00160156 1.12117187 2.00320313 1.18359375 3.03515625 C1.26808405 4.37761331 1.35272768 5.72006072 1.4375 7.0625 C1.55931641 9.02896484 1.55931641 9.02896484 1.68359375 11.03515625 C1.97898249 14.73663238 2.43265388 18.33370448 3 22 C2.34 22.33 1.68 22.66 1 23 C-1.59966676 16.17587475 -1.4031608 9.22876697 -1 2 C-0.67 1.34 -0.34 0.68 0 0 Z " fill="#1C3569" transform="translate(806,569)" />
<path d="M0 0 C0.94101562 0.00322266 1.88203125 0.00644531 2.8515625 0.00976562 C3.83640625 0.01814453 4.82125 0.02652344 5.8359375 0.03515625 C6.82851563 0.03966797 7.82109375 0.04417969 8.84375 0.04882812 C11.2995391 0.0606348 13.75520854 0.07710225 16.2109375 0.09765625 C16.2109375 0.42765625 16.2109375 0.75765625 16.2109375 1.09765625 C10.469735 2.39144836 5.10775117 3.4662071 -0.7890625 3.09765625 C-1.4490625 2.76765625 -2.1090625 2.43765625 -2.7890625 2.09765625 C-4.11767175 1.74596557 -5.45064578 1.40995349 -6.7890625 1.09765625 C-4.33631109 -0.12871945 -2.7384844 -0.01649689 0 0 Z " fill="#254074" transform="translate(847.7890625,527.90234375)" />
<path d="M0 0 C4.12838068 0.60711481 7.40422382 1.87522317 11 4 C11.33 4.99 11.66 5.98 12 7 C7.76570244 5.68938409 3.92592596 4.05643741 0 2 C0 1.34 0 0.68 0 0 Z " fill="#2C4270" transform="translate(372,957)" />
<path d="M0 0 C0.99 0 1.98 0 3 0 C3 3.63 3 7.26 3 11 C2.01 10.01 1.02 9.02 0 8 C-0.39078556 5.27492202 -0.13616953 2.76878044 0 0 Z " fill="#EDEFF4" transform="translate(729,530)" />
<path d="M0 0 C0.99 0.33 1.98 0.66 3 1 C3 2.98 3 4.96 3 7 C2.67 7 2.34 7 2 7 C1.67 9.97 1.34 12.94 1 16 C0.67 16 0.34 16 0 16 C0 10.72 0 5.44 0 0 Z " fill="#2F4571" transform="translate(151,611)" />
<path d="M0 0 C1.32 0.33 2.64 0.66 4 1 C4 1.66 4 2.32 4 3 C2.71086513 3.67154933 1.41859796 4.33708859 0.125 5 C-0.59429688 5.37125 -1.31359375 5.7425 -2.0546875 6.125 C-4 7 -4 7 -6 7 C-6 6.34 -6 5.68 -6 5 C-5.38125 4.731875 -4.7625 4.46375 -4.125 4.1875 C-1.7004767 3.04443152 -1.7004767 3.04443152 0 0 Z " fill="#193364" transform="translate(525,353)" />
<path d="M0 0 C0.99 0 1.98 0 3 0 C4.99785435 4.1205746 5.17835515 7.45194365 5 12 C3.68 12.33 2.36 12.66 1 13 C1.66 12.67 2.32 12.34 3 12 C2.68950274 10.56206608 2.3765224 9.1246682 2.0625 7.6875 C1.88847656 6.88699219 1.71445312 6.08648438 1.53515625 5.26171875 C1.00113841 2.854599 1.00113841 2.854599 0 0 Z " fill="#233E6F" transform="translate(738,668)" />
<path d="M0 0 C0.66 0.66 1.32 1.32 2 2 C1.47731534 4.76276177 0.89130413 7.3260876 0 10 C-0.99 10 -1.98 10 -3 10 C-2.01 6.7 -1.02 3.4 0 0 Z " fill="#1F3A6E" transform="translate(182,426)" />
<path d="M0 0 C2.96052484 3.36423277 3.92289822 6.69159287 5 11 C4.34 11.66 3.68 12.32 3 13 C-0.42857143 4.57142857 -0.42857143 4.57142857 0 0 Z " fill="#253A6A" transform="translate(513,549)" />
<path d="M0 0 C0.66 0.33 1.32 0.66 2 1 C-0.85276137 3.93200474 -3.65079784 6.64315404 -7 9 C-5.96133543 5.60073413 -5.08704858 4.07668565 -2.375 1.6875 C-1.59125 1.130625 -0.8075 0.57375 0 0 Z " fill="#E3E8EF" transform="translate(633,543)" />
<path d="M0 0 C0.33 0.99 0.66 1.98 1 3 C-0.75 5.4375 -0.75 5.4375 -3 8 C-5.140625 8.66015625 -5.140625 8.66015625 -7 9 C-6.02180976 7.68677212 -5.0424189 6.37443848 -4.0625 5.0625 C-3.51722656 4.33160156 -2.97195313 3.60070312 -2.41015625 2.84765625 C-1 1 -1 1 0 0 Z " fill="#DEE4EC" transform="translate(757,558)" />
<path d="M0 0 C0.66 0.33 1.32 0.66 2 1 C2.88671875 2.7421875 2.88671875 2.7421875 3.6875 4.875 C3.95949219 5.57367187 4.23148438 6.27234375 4.51171875 6.9921875 C5 9 5 9 4 12 C3.13353333 10.56988027 2.28218171 9.13059381 1.4375 7.6875 C0.96183594 6.88699219 0.48617187 6.08648438 -0.00390625 5.26171875 C-0.33261719 4.51535156 -0.66132812 3.76898437 -1 3 C-0.67 2.01 -0.34 1.02 0 0 Z " fill="#183166" transform="translate(713,619)" />
<path d="M0 0 C2.88437779 1.29299694 4.87219421 2.65941363 7 5 C6.67 5.99 6.34 6.98 6 8 C1.125 3.375 1.125 3.375 0 0 Z " fill="#E1E6ED" transform="translate(505,543)" />
<path d="M0 0 C0.99 0 1.98 0 3 0 C2.67 3.63 2.34 7.26 2 11 C1.67 11 1.34 11 1 11 C0.67 7.37 0.34 3.74 0 0 Z " fill="#254176" transform="translate(156,664)" />
<path d="M0 0 C0.66 0.33 1.32 0.66 2 1 C1.67 2.32 1.34 3.64 1 5 C-0.32 5.33 -1.64 5.66 -3 6 C-3.33 6.99 -3.66 7.98 -4 9 C-3.38461538 3.46153846 -3.38461538 3.46153846 -1.4375 1.125 C-0.963125 0.75375 -0.48875 0.3825 0 0 Z " fill="#D0D6E1" transform="translate(706,543)" />
<path d="M0 0 C0.66 0.66 1.32 1.32 2 2 C1.625 5.125 1.625 5.125 1 8 C0.01 8.33 -0.98 8.66 -2 9 C-1.34 6.03 -0.68 3.06 0 0 Z " fill="#274073" transform="translate(175,444)" />
<path d="M0 0 C0.33 0 0.66 0 1 0 C0.25 6.625 0.25 6.625 -2 10 C-2.66 10 -3.32 10 -4 10 C-2.8905928 6.51329166 -1.73662334 3.22515763 0 0 Z " fill="#183469" transform="translate(191,407)" />
<path d="M0 0 C0.33 0.99 0.66 1.98 1 3 C0.0625 5.1875 0.0625 5.1875 -1 7 C-1.66 7 -2.32 7 -3 7 C-3.33 7.66 -3.66 8.32 -4 9 C-4 7.68 -4 6.36 -4 5 C-2 2.25 -2 2.25 0 0 Z " fill="#D4DBE6" transform="translate(745,572)" />
<path d="M0 0 C0.33 1.32 0.66 2.64 1 4 C0.01 4.99 -0.98 5.98 -2 7 C-2.99 6.67 -3.98 6.34 -5 6 C-3.35 4.02 -1.7 2.04 0 0 Z " fill="#1C356A" transform="translate(737,563)" />
<path d="M0 0 C0.66 0.99 1.32 1.98 2 3 C0.6875 5 0.6875 5 -1 7 C-1.99 7 -2.98 7 -4 7 C-2.79618552 4.50638429 -1.54571278 2.31856917 0 0 Z " fill="#213C6E" transform="translate(726,576)" />
<path d="M0 0 C0.99 0.33 1.98 0.66 3 1 C0.03 3.475 0.03 3.475 -3 6 C-3.66 5.67 -4.32 5.34 -5 5 C-3.35 3.35 -1.7 1.7 0 0 Z " fill="#1E376C" transform="translate(259,307)" />
<path d="M0 0 C1.5 1.6875 1.5 1.6875 3 4 C3.1875 6.75 3.1875 6.75 3 9 C0.84622436 6.37801226 -0.40072174 4.35595828 -1 1 C-0.67 0.67 -0.34 0.34 0 0 Z " fill="#143066" transform="translate(809,592)" />
<path d="M0 0 C1.9375 0.375 1.9375 0.375 4 1 C4.33 1.66 4.66 2.32 5 3 C4.5625 5.125 4.5625 5.125 4 7 C3.34 7 2.68 7 2 7 C1.34 4.69 0.68 2.38 0 0 Z " fill="#E5E9F0" transform="translate(741,542)" />
</svg>
